<?xml version="1.0" encoding="UTF-8" standalone="no"?>
<!DOCTYPE svg PUBLIC "-//W3C//DTD SVG 1.1//EN" "http://www.w3.org/Graphics/SVG/1.1/DTD/svg11.dtd">
<svg xmlns="http://www.w3.org/2000/svg" version="1.1" viewBox="0.00 0.00 512.00 512.00">
<path fill="#1744cb" d="
  M 249.59 0.00
  L 262.79 0.00
  C 400.72 4.35 507.82 113.73 512.00 250.81
  L 512.00 260.54
  C 508.92 399.93 397.99 508.86 259.46 512.00
  L 252.20 512.00
  C 113.79 509.17 4.76 399.85 0.00 262.42
  L 0.00 250.96
  C 3.49 113.50 112.08 4.32 249.59 0.00
  Z
  M 493.69 256.02
  A 237.66 237.66 0.0 0 0 256.03 18.36
  A 237.66 237.66 0.0 0 0 18.37 256.02
  A 237.66 237.66 0.0 0 0 256.03 493.68
  A 237.66 237.66 0.0 0 0 493.69 256.02
  Z"
/>
<path fill="#1744cb" d="
  M 475.38 255.97
  A 219.36 219.36 0.0 0 1 256.02 475.33
  A 219.36 219.36 0.0 0 1 36.66 255.97
  A 219.36 219.36 0.0 0 1 256.02 36.61
  A 219.36 219.36 0.0 0 1 475.38 255.97
  Z
  M 310.78 118.85
  A 54.78 54.78 0.0 0 0 256.00 64.07
  A 54.78 54.78 0.0 0 0 201.22 118.85
  A 54.78 54.78 0.0 0 0 256.00 173.63
  A 54.78 54.78 0.0 0 0 310.78 118.85
  Z
  M 256.22 320.74
  Q 276.80 370.98 297.64 421.34
  Q 301.92 431.69 311.55 435.98
  C 334.81 446.32 357.45 423.65 348.18 400.07
  Q 327.49 347.47 306.86 294.85
  C 304.51 288.87 301.74 282.37 301.74 276.76
  Q 301.74 265.79 301.77 254.82
  C 301.80 247.53 305.77 245.04 312.78 244.43
  Q 349.65 241.18 386.50 237.70
  C 392.52 237.13 396.96 235.67 401.53 232.39
  C 417.29 221.05 416.09 197.32 400.09 187.22
  Q 392.07 182.16 381.31 183.12
  Q 338.01 186.99 294.71 190.89
  Q 284.56 191.81 274.75 191.90
  C 257.11 192.07 239.14 192.69 221.53 191.17
  Q 175.63 187.23 129.75 183.05
  C 97.57 180.12 87.24 224.16 116.25 235.67
  Q 120.16 237.22 130.46 238.14
  Q 165.91 241.31 201.35 244.63
  C 208.27 245.28 210.25 249.89 210.26 256.46
  C 210.26 264.61 211.10 274.49 209.40 282.12
  Q 208.41 286.59 206.41 291.67
  Q 185.40 345.09 164.47 398.53
  Q 161.53 406.06 161.33 410.38
  C 160.37 431.26 182.22 445.43 200.88 436.06
  Q 210.25 431.36 213.70 422.94
  Q 234.66 371.77 255.48 320.74
  A 0.40 0.40 0.0 0 1 256.22 320.74
  Z"
/>
<circle fill="#1744cb" cx="256.00" cy="118.86" r="36.49"/>
<path fill="#1744cb" d="
  M 239.81 210.21
  C 256.79 210.25 274.05 210.91 290.96 209.48
  Q 350.44 204.45 382.50 201.31
  C 397.28 199.86 399.02 218.20 384.50 219.55
  Q 347.99 222.93 311.48 226.20
  C 293.02 227.85 283.42 238.38 283.49 256.96
  C 283.54 270.47 282.36 282.71 287.70 296.27
  Q 309.30 351.13 330.80 406.03
  Q 332.43 410.19 331.97 412.72
  C 330.78 419.41 322.92 422.66 317.60 418.48
  Q 315.53 416.85 313.61 412.18
  Q 293.40 363.12 273.17 314.07
  C 266.58 298.09 245.65 297.51 239.04 313.52
  Q 219.16 361.60 199.33 409.72
  Q 196.80 415.88 196.14 416.84
  C 189.79 426.07 176.20 418.48 180.76 406.90
  Q 203.03 350.31 225.19 293.69
  C 229.58 282.50 228.51 269.16 228.52 257.07
  C 228.52 244.42 224.25 233.81 211.99 228.72
  Q 207.35 226.79 196.22 225.78
  Q 163.11 222.78 130.00 219.76
  C 126.54 219.44 123.76 219.53 121.07 217.49
  C 112.88 211.26 118.96 200.31 128.75 201.26
  Q 160.27 204.31 219.85 209.35
  Q 229.78 210.19 239.81 210.21
  Z"
/>
</svg>
