<svg width="29" height="38" viewBox="0 0 29 38" fill="none" xmlns="http://www.w3.org/2000/svg">
<path d="M14.1276 0.98288H14.8556C15.828 1.03409 16.7482 1.25926 17.6163 1.65839C19.7925 2.65882 21.318 4.68871 21.6945 7.04977C21.8478 8.00933 21.8236 8.98185 21.8003 9.94766C21.8001 9.95436 21.8013 9.96101 21.8038 9.96723C21.8062 9.97346 21.8099 9.97913 21.8146 9.98392C21.8193 9.9887 21.8248 9.9925 21.831 9.9951C21.8372 9.99769 21.8438 9.99903 21.8505 9.99902C23.5898 9.99888 25.3289 9.99895 27.0678 9.99925C28.0207 9.99947 28.8215 10.4742 28.9658 11.4733C29.02 11.8478 28.9934 12.1301 28.994 12.6173C28.999 17.2976 28.9971 23.7289 28.9884 31.9113C28.9883 32.0874 28.9816 32.236 28.9685 32.3571C28.6737 35.0879 26.3622 36.9836 23.684 37.1368H15.2116C14.9581 37.1278 14.7047 37.1238 14.4513 37.1245C14.3236 37.1249 14.1847 37.1145 14.0685 37.1145C11.2039 37.1147 8.33919 37.1145 5.47445 37.1138C2.75321 37.1131 0.487609 35.1998 0.081037 32.5087C0.0486307 32.2943 0.0316809 32.0892 0.0301875 31.8932C0.0207792 30.6527 0.0174191 29.4121 0.0201072 28.1716C0.0205552 27.9022 0.00868284 27.595 0.00868284 27.3433C0.00823483 22.2989 0.00375469 17.2546 0.0102509 12.2102C0.0104002 12.1452 0.00801082 12.0633 0.00308267 11.9646C-0.0320117 11.2588 0.23254 10.7036 0.796738 10.2989C1.17307 10.0289 1.61459 9.99969 2.06282 9.99947C3.73018 9.99873 5.39746 9.99828 7.06467 9.99813C7.1035 9.99813 7.1424 9.99456 7.18138 9.98741C7.19225 9.98535 7.20202 9.9795 7.20896 9.97091C7.21589 9.96231 7.21954 9.95154 7.21923 9.94052C7.20639 9.46844 7.2046 8.99338 7.21386 8.51535C7.24679 6.79743 7.65806 5.14806 8.7324 3.77872C10.0525 2.09586 11.9823 1.10012 14.1276 0.98288ZM11.0648 10.0055L17.9467 9.99344C17.9638 9.99341 17.9806 9.99003 17.9964 9.9835C18.0121 9.97696 18.0265 9.9674 18.0385 9.95535C18.0505 9.9433 18.0601 9.92901 18.0666 9.91328C18.0731 9.89756 18.0764 9.88071 18.0764 9.8637L18.0737 8.34273C18.0729 7.86135 17.9797 7.38485 17.7995 6.94042C17.6193 6.496 17.3557 6.09236 17.0236 5.75255C16.6915 5.41275 16.2975 5.14343 15.864 4.95998C15.4306 4.77652 14.9662 4.68252 14.4974 4.68335H14.4952C13.5484 4.68502 12.6411 5.07281 11.9729 5.76142C11.3047 6.45004 10.9302 7.38306 10.9319 8.35524L10.9346 9.8762C10.9346 9.89321 10.938 9.91005 10.9446 9.92575C10.9511 9.94145 10.9607 9.95572 10.9728 9.96772C10.9849 9.97973 10.9992 9.98924 11.015 9.99573C11.0308 10.0022 11.0477 10.0055 11.0648 10.0055ZM8.72568 17.2707C7.94233 17.126 7.3747 16.5284 7.2544 15.7376C7.21826 15.5 7.20146 15.2613 7.204 15.0213C7.20826 14.5956 7.20803 14.1707 7.2226 13.7451C7.22379 13.712 7.2096 13.6827 7.18003 13.6573C7.1747 13.6527 7.16786 13.6501 7.16077 13.6501H3.69919C3.69173 13.6501 3.68799 13.6539 3.68799 13.6613C3.68754 19.5004 3.68754 25.3395 3.68799 31.1786C3.68822 32.0109 3.93261 32.9513 4.81878 33.2635C5.06631 33.3506 5.40142 33.3852 5.67583 33.3852C11.5668 33.3853 17.4576 33.3852 23.3484 33.3849C24.1295 33.3849 24.8033 33.146 25.1098 32.3718C25.291 31.9142 25.338 31.4585 25.338 30.9694C25.3382 25.2003 25.3382 19.431 25.338 13.6615C25.338 13.6539 25.3342 13.6501 25.3266 13.6501H21.8379C21.8325 13.6501 21.8271 13.6512 21.8221 13.6533C21.8171 13.6554 21.8125 13.6585 21.8088 13.6624C21.805 13.6663 21.802 13.6709 21.8001 13.6759C21.7981 13.6809 21.7972 13.6863 21.7974 13.6917C21.8137 14.2404 21.8352 14.7578 21.805 15.3306C21.7948 15.5213 21.7718 15.6999 21.7358 15.8665C21.3131 17.8243 18.5056 17.7309 18.1107 15.7973C18.0289 15.3969 18.0417 14.9587 18.0473 14.5177C18.0506 14.2631 18.0547 14.0012 18.0596 13.7319C18.0598 13.7212 18.0578 13.7106 18.0539 13.7007C18.0499 13.6908 18.044 13.6818 18.0365 13.6742C18.029 13.6666 18.0201 13.6605 18.0103 13.6564C18.0004 13.6523 17.9898 13.6501 17.9792 13.6501L11.0079 13.6499C10.9764 13.6499 10.961 13.6656 10.9617 13.697C10.9717 14.0709 10.9796 14.4423 10.9855 14.8114C10.9958 15.4784 10.9216 16.2756 10.4086 16.772C9.95929 17.2068 9.34282 17.3846 8.72568 17.2707Z" fill="#E9E9E9"/>
</svg>
