<svg width="45" height="45" viewBox="0 0 45 45" fill="none" xmlns="http://www.w3.org/2000/svg">
<g clip-path="url(#clip0_110_2730)">
<path d="M6.31055 0H38.722C42.1954 0.292676 44.7899 2.82217 45 6.3123V38.6991C44.7521 42.1796 42.14 44.8181 38.6437 45H27.7761V29.1744C27.7761 29.1636 27.7782 29.1528 27.7824 29.1428C27.7865 29.1328 27.7926 29.1237 27.8003 29.116C27.8079 29.1083 27.8171 29.1022 27.8271 29.0981C27.8371 29.0939 27.8478 29.0918 27.8587 29.0918H34.4118C34.4394 29.0918 34.4555 29.0783 34.4602 29.0514L35.7645 21.2247C35.7691 21.196 35.7568 21.1816 35.7275 21.1816H27.8174C27.8057 21.1816 27.7945 21.177 27.7863 21.1688C27.7781 21.1605 27.7734 21.1494 27.7734 21.1377V15.8643C27.7734 15.8526 27.7781 15.8414 27.7863 15.8332C27.7945 15.8249 27.8057 15.8203 27.8174 15.8203H35.7275C35.7568 15.8203 35.7715 15.8057 35.7715 15.7764V7.95586C35.7715 7.94397 35.7668 7.93257 35.7584 7.92416C35.75 7.91576 35.7385 7.91104 35.7267 7.91104C33.2622 7.90928 30.7963 7.90957 28.3289 7.91191C27.5613 7.9125 26.9769 7.94385 26.5755 8.00596C23.1759 8.53506 20.482 11.2113 19.9582 14.6215C19.8979 15.0146 19.8668 15.5988 19.865 16.374C19.8621 17.966 19.8618 19.5533 19.8642 21.1359C19.8642 21.1481 19.8593 21.1597 19.8508 21.1683C19.8422 21.1768 19.8306 21.1816 19.8185 21.1816H14.6338C14.6045 21.1816 14.5898 21.1963 14.5898 21.2256V29.0479C14.5898 29.0595 14.5945 29.0707 14.6027 29.0789C14.611 29.0872 14.6221 29.0918 14.6338 29.0918H19.8176C19.8475 29.0918 19.8624 29.1064 19.8624 29.1357V45H6.34482C2.84502 44.7715 0.181934 42.1594 0 38.6437V6.27978C0.225879 2.80107 2.83623 0.266309 6.31055 0Z" fill="white"/>
</g>
<defs>
<clipPath id="clip0_110_2730">
<rect width="45" height="45" fill="white"/>
</clipPath>
</defs>
</svg>
