<svg width="45" height="45" viewBox="0 0 45 45" fill="none" xmlns="http://www.w3.org/2000/svg">
<g clip-path="url(#clip0_110_2738)">
<path d="M6.44238 0H38.6323C42.1277 0.244336 44.7355 2.91973 45 6.39844V38.591C44.7056 42.1075 42.1102 44.8058 38.5559 45H6.52148C2.95312 44.855 0.291797 42.1374 0 38.6024V6.41074C0.223242 2.88897 2.93115 0.228516 6.44238 0ZM39.6212 11.9434C39.6181 10.1896 38.9184 8.5088 37.6761 7.27081C36.4338 6.03282 34.7506 5.33905 32.9967 5.34211L11.9434 5.37884C10.1896 5.38191 8.5088 6.08156 7.27081 7.32388C6.03282 8.5662 5.33905 10.2494 5.34211 12.0033L5.37884 33.0566C5.38191 34.8104 6.08156 36.4912 7.32388 37.7292C8.5662 38.9672 10.2494 39.661 12.0033 39.6579L33.0566 39.6212C34.8104 39.6181 36.4912 38.9184 37.7292 37.6761C38.9672 36.4338 39.661 34.7506 39.6579 32.9967L39.6212 11.9434Z" fill="white"/>
<path d="M37.002 33.024C37.002 34.079 36.5829 35.0908 35.8368 35.8368C35.0908 36.5829 34.079 37.002 33.024 37.002H11.976C10.921 37.002 9.90916 36.5829 9.16316 35.8368C8.41715 35.0908 7.99805 34.079 7.99805 33.024V11.976C7.99805 10.921 8.41715 9.90916 9.16316 9.16316C9.90916 8.41715 10.921 7.99805 11.976 7.99805H33.024C34.079 7.99805 35.0908 8.41715 35.8368 9.16316C36.5829 9.90916 37.002 10.921 37.002 11.976V33.024ZM34.3573 13.2715C34.3573 12.5743 34.0804 11.9056 33.5874 11.4126C33.0944 10.9196 32.4257 10.6427 31.7285 10.6427C31.3833 10.6427 31.0415 10.7107 30.7225 10.8428C30.4036 10.9749 30.1138 11.1685 29.8697 11.4126C29.6256 11.6567 29.4319 11.9465 29.2998 12.2655C29.1677 12.5844 29.0997 12.9263 29.0997 13.2715C29.0997 13.6167 29.1677 13.9585 29.2998 14.2775C29.4319 14.5964 29.6256 14.8862 29.8697 15.1303C30.1138 15.3744 30.4036 15.5681 30.7225 15.7002C31.0415 15.8323 31.3833 15.9003 31.7285 15.9003C32.4257 15.9003 33.0944 15.6233 33.5874 15.1303C34.0804 14.6373 34.3573 13.9687 34.3573 13.2715ZM31.7206 22.5C31.7206 20.0545 30.7492 17.7092 29.02 15.98C27.2908 14.2508 24.9455 13.2794 22.5 13.2794C20.0545 13.2794 17.7092 14.2508 15.98 15.98C14.2508 17.7092 13.2794 20.0545 13.2794 22.5C13.2794 24.9455 14.2508 27.2908 15.98 29.02C17.7092 30.7492 20.0545 31.7206 22.5 31.7206C24.9455 31.7206 27.2908 30.7492 29.02 29.02C30.7492 27.2908 31.7206 24.9455 31.7206 22.5Z" fill="white"/>
<path d="M22.5 29.0838C26.1367 29.0838 29.0848 26.1357 29.0848 22.4991C29.0848 18.8624 26.1367 15.9143 22.5 15.9143C18.8633 15.9143 15.9152 18.8624 15.9152 22.4991C15.9152 26.1357 18.8633 29.0838 22.5 29.0838Z" fill="white"/>
</g>
<defs>
<clipPath id="clip0_110_2738">
<rect width="45" height="45" fill="white"/>
</clipPath>
</defs>
</svg>
