<svg width="278" height="54" viewBox="0 0 278 54" fill="none" xmlns="http://www.w3.org/2000/svg">
<path d="M80.2358 52.1865C80.2358 53.3055 78.3561 53.3664 78.3486 52.2788C78.2234 35.2286 78.1771 18.1784 78.2096 1.12828C78.2115 0.0147877 79.2987 -0.276973 80.0254 0.489361C80.068 0.53491 80.0893 0.588461 80.0893 0.650014C80.0555 19.74 80.2451 39.1034 80.2358 52.1865Z" fill="white"/>
<path d="M3.97339 14.4533C6.16783 14.4533 7.94677 12.7039 7.94677 10.5459C7.94677 8.38788 6.16783 6.63849 3.97339 6.63849C1.77895 6.63849 0 8.38788 0 10.5459C0 12.7039 1.77895 14.4533 3.97339 14.4533Z" fill="white"/>
<path d="M30.5102 21.9689C31.3458 23.0935 32.403 23.893 33.5597 24.7535C36.305 26.7977 38.4851 28.1162 41.9553 28.8899C45.8028 29.7467 49.4889 30.6349 53.4548 30.8417C53.9906 30.8701 55.0534 30.9452 56.6433 31.067C58.1868 31.1852 60.7857 30.6497 61.749 32.4298C62.455 33.739 61.4072 34.6734 60.0946 34.6291C54.1458 34.4297 47.9923 33.9754 42.006 32.9579C41.9171 32.9432 41.8257 32.9352 41.7318 32.9339C41.6649 32.9315 41.5991 32.9158 41.5384 32.8878C41.0214 32.6526 40.5663 32.7314 40.1733 33.1241C40.145 33.1526 40.1228 33.1863 40.108 33.2234C40.0932 33.2604 40.0861 33.3 40.0871 33.3398C40.0882 33.3795 40.0974 33.4187 40.1141 33.4549C40.1308 33.4912 40.1548 33.5237 40.1845 33.5507C42.1562 35.3437 44.6574 37.3621 47.1267 38.4497C47.6137 38.6639 48.3128 38.8978 49.2242 39.1514C51.6077 39.8162 53.9906 40.4816 56.3729 41.1476C57.1515 41.3642 57.5659 41.4861 57.616 41.5132C58.6206 42.0598 58.3877 43.4909 57.7418 44.2554C57.3606 44.7078 56.9907 44.717 56.3973 44.5896C51.6052 43.5678 48.468 42.8852 46.9858 42.5417C43.8424 41.8123 41.176 39.5521 38.6673 37.5467C36.4008 35.7371 34.17 34.2598 31.466 32.873C29.3353 31.781 27.204 30.6916 25.0721 29.6045C22.5521 28.3193 20.4622 26.9473 21.2471 23.7804C21.3954 23.1803 22.4076 23.3501 22.8789 23.328C24.843 23.2357 25.996 22.0501 25.9847 20.0447C25.9847 19.9438 26.0417 19.8429 26.1556 19.7419C26.2232 19.6816 26.3221 19.6286 26.4523 19.5831C30.4683 18.1625 33.9759 15.9742 36.9754 13.0185C37.9068 12.1007 38.825 11.3178 39.8953 12.5384C40.761 13.5263 40.0587 14.2723 39.1949 14.95C36.2919 17.2238 33.4032 19.5154 30.529 21.8249C30.4776 21.8667 30.4714 21.9147 30.5102 21.9689Z" fill="white"/>
<path d="M19.3092 22.3825C19.3666 22.4109 19.4124 22.4576 19.439 22.515C19.4656 22.5725 19.4715 22.6371 19.4557 22.6983C19.1415 23.8813 19.1734 25.0502 19.5515 26.2049C19.5803 26.2936 19.5502 26.3219 19.4613 26.2899C19.2711 26.2209 19.0545 26.1163 18.8116 25.976C14.7206 23.6123 11.1784 20.7003 8.18526 17.2398C6.23612 14.9851 9.03026 13.4801 10.2921 15.1033C12.707 18.2043 15.7127 20.6307 19.3092 22.3825Z" fill="white"/>
<path d="M22.5935 15.0054C23.8366 16.1448 25.166 19.8952 23.8366 21.3872C22.0207 23.424 16.1808 18.1003 19.1327 15.3193C20.0172 14.4884 21.5926 14.0877 22.5935 15.0054Z" fill="white"/>
<path d="M179.659 21.6586C179.287 21.1028 178.819 20.3439 178.188 20.0244C176.296 19.0654 174.375 19.0463 172.427 19.9672C171.701 20.3106 171.721 21.5275 172.294 21.9615C172.482 22.1043 172.836 22.2262 173.357 22.3271C176.02 22.8441 178.682 23.3606 181.343 23.8764C182.562 24.1128 184.107 25.0785 184.954 26.0037C187.442 28.7255 186.353 32.8065 183.206 34.4906C181.198 35.5634 178.876 36.0159 176.523 36.1691C172.375 36.4387 163.99 35.2532 164.501 29.3035C164.52 29.0782 164.625 28.8905 164.815 28.7403C164.859 28.7058 164.908 28.6886 164.963 28.6886H169.697C169.81 28.6886 169.92 28.7136 170.022 28.7615C170.123 28.8095 170.211 28.8793 170.281 28.9656C171.982 31.0615 173.851 31.6985 176.534 31.2868C177.533 31.1316 179.531 30.8048 179.321 29.3201C179.221 28.6166 178.607 28.3654 177.91 28.2657C173.939 27.697 164.894 26.8771 164.976 21.1638C165.061 15.443 171.939 14.2575 176.333 14.588C179.232 14.8041 184.605 15.9416 185.429 19.3356C185.566 19.9044 185.788 21.8618 184.721 21.8747C183.083 21.8944 181.446 21.8513 179.811 21.7454C179.78 21.7437 179.75 21.7349 179.724 21.7198C179.697 21.7047 179.675 21.6837 179.659 21.6586Z" fill="white"/>
<path d="M238.942 28.7828V35.3363C238.942 35.471 238.888 35.6002 238.791 35.6954C238.694 35.7906 238.563 35.8441 238.426 35.8441H233.267C233.174 35.8441 233.082 35.8261 232.996 35.7911C232.91 35.7561 232.831 35.7049 232.766 35.6402C232.7 35.5756 232.647 35.4988 232.612 35.4144C232.576 35.3299 232.558 35.2394 232.558 35.148C232.558 29.0025 232.558 22.7986 232.558 16.5362C232.558 15.7625 232.785 15.2602 233.626 15.2325C238.653 15.0682 250.521 13.7922 253.461 19.1547C254.319 20.7187 254.432 22.7906 253.551 24.3362C252.905 25.4718 251.704 26.1772 250.485 26.6444C250.452 26.6568 250.423 26.6769 250.4 26.7027C250.377 26.7286 250.361 26.7596 250.353 26.793C250.345 26.8264 250.345 26.8613 250.354 26.8946C250.362 26.9279 250.379 26.9586 250.402 26.9842C252.599 29.3995 254.336 32.1054 255.611 35.1018C255.902 35.7869 255.206 35.8718 254.751 35.8792C253.432 35.9014 251.777 35.9014 249.788 35.8792C249.199 35.8718 248.924 35.8072 248.62 35.2698C247.594 33.4565 246.558 31.6493 245.514 29.8483C245.214 29.3294 244.609 28.9988 243.96 28.9323C242.325 28.76 240.686 28.6769 239.044 28.6831C238.976 28.6831 238.942 28.7163 238.942 28.7828ZM238.957 20.2608L238.927 23.6437C238.927 23.7002 238.937 23.7563 238.959 23.8086C238.981 23.861 239.012 23.9087 239.053 23.949C239.093 23.9893 239.141 24.0214 239.194 24.0435C239.247 24.0656 239.303 24.0772 239.361 24.0777L244.318 24.1201C245.129 24.127 245.908 23.9247 246.485 23.5576C247.062 23.1906 247.389 22.6889 247.394 22.1628L247.398 21.8895C247.4 21.6286 247.324 21.3696 247.172 21.1272C247.021 20.8849 246.797 20.6639 246.515 20.477C246.232 20.2901 245.896 20.1408 245.526 20.0378C245.155 19.9348 244.758 19.8801 244.356 19.8767L239.398 19.8342C239.341 19.8337 239.284 19.8444 239.231 19.8655C239.177 19.8867 239.129 19.918 239.088 19.9576C239.047 19.9972 239.014 20.0444 238.992 20.0964C238.969 20.1484 238.958 20.2043 238.957 20.2608Z" fill="white"/>
<path d="M93.9717 16.1318C93.9736 15.6628 94.075 15.2787 94.6346 15.2732C100.725 15.2141 106.828 15.1932 112.945 15.2104C113.144 15.2109 113.334 15.2887 113.475 15.4268C113.615 15.565 113.694 15.7521 113.694 15.9472V19.4557C113.694 19.6516 113.615 19.8395 113.474 19.978C113.333 20.1165 113.142 20.1943 112.943 20.1943H101.113C100.964 20.1943 100.82 20.2527 100.715 20.3566C100.609 20.4605 100.55 20.6014 100.55 20.7483V23.5182C100.55 23.6651 100.609 23.806 100.715 23.9099C100.82 24.0138 100.964 24.0722 101.113 24.0722H110.267C110.479 24.0722 110.682 24.1549 110.831 24.302C110.981 24.4492 111.065 24.6488 111.065 24.857V28.3193C111.065 28.5152 110.986 28.7031 110.845 28.8416C110.704 28.9801 110.513 29.058 110.314 29.058H101.207C101.033 29.058 100.865 29.1261 100.742 29.2473C100.619 29.3685 100.55 29.5329 100.55 29.7043V35.0594C100.55 35.1715 100.527 35.2826 100.483 35.3859C100.438 35.4893 100.374 35.583 100.292 35.6614C100.211 35.7399 100.114 35.8015 100.008 35.8427C99.9019 35.8839 99.7886 35.9039 99.6746 35.9014C98.0572 35.867 96.4122 35.8436 94.7397 35.8313C94.2978 35.8276 94.0737 35.5857 94.0675 35.1055C93.9824 28.7804 93.9504 22.4558 93.9717 16.1318Z" fill="white"/>
<path d="M117.063 15.4744C117.184 15.2713 117.439 15.171 117.827 15.1734C119.498 15.1833 121.143 15.219 122.76 15.2805C122.897 15.2853 123.027 15.3422 123.122 15.4393C123.217 15.5364 123.27 15.6661 123.271 15.8013C123.275 17.1382 123.091 18.5933 123.087 19.8324C123.075 22.617 122.747 26.301 123.69 28.8271C124.078 29.8686 124.874 30.6035 126.08 31.0319C129.056 32.0882 132.111 30.7217 132.278 27.3941C132.476 23.4658 132.533 19.5172 132.447 15.5483C132.446 15.5001 132.465 15.4535 132.498 15.4185C132.531 15.3836 132.577 15.3632 132.626 15.3618L138.231 15.1863C138.312 15.1839 138.392 15.1974 138.468 15.2262C138.543 15.2549 138.612 15.2983 138.67 15.3537C138.728 15.4092 138.774 15.4755 138.806 15.5489C138.838 15.6223 138.854 15.7012 138.854 15.7809C138.861 19.7228 138.858 23.7176 138.847 27.7653C138.819 38.4053 118.982 39.2215 117.198 29.5306C116.361 24.988 116.928 20.6781 116.886 16.1318C116.884 15.893 116.943 15.6738 117.063 15.4744Z" fill="white"/>
<path d="M141.697 16.1909C141.711 15.5945 141.684 15.2695 142.424 15.2639C148.73 15.2036 155.036 15.1895 161.343 15.2215C161.667 15.2239 161.991 15.2498 162.316 15.299C162.347 15.3037 162.377 15.3146 162.405 15.3311C162.432 15.3476 162.456 15.3693 162.475 15.3951C162.911 15.9989 162.706 18.4585 162.699 19.2747C162.692 19.878 162.397 20.179 161.812 20.1777C159.824 20.174 157.875 20.1913 155.963 20.2294C155.808 20.2328 155.661 20.2956 155.553 20.4043C155.445 20.513 155.385 20.659 155.385 20.8111C155.381 25.5482 155.38 30.257 155.381 34.9375C155.381 35.6946 155 35.8774 154.303 35.8793C152.656 35.883 151.123 35.838 149.706 35.7445C149.52 35.7319 149.345 35.6505 149.217 35.5165C149.09 35.3826 149.018 35.2061 149.017 35.0224C148.995 30.3272 148.987 25.6652 148.995 21.0364C148.996 20.496 148.728 20.2251 148.191 20.2239C146.158 20.2227 144.111 20.1906 142.05 20.1279C141.951 20.125 141.857 20.0846 141.787 20.015C141.717 19.9455 141.678 19.8522 141.677 19.7549C141.664 18.5423 141.671 17.3543 141.697 16.1909Z" fill="white"/>
<path d="M189.63 15.6C189.757 15.44 189.921 15.355 190.12 15.3452C191.882 15.259 193.658 15.2153 195.447 15.2141C195.57 15.2142 195.687 15.2598 195.777 15.3417C195.867 15.4236 195.921 15.5357 195.93 15.6554C196.086 17.8516 196.152 20.1032 196.129 22.4102C196.126 22.6921 196.193 22.9119 196.33 23.0694C196.352 23.0955 196.38 23.1164 196.411 23.1308C196.443 23.1451 196.477 23.1525 196.512 23.1525L204.566 23.1415C204.668 23.141 204.767 23.1005 204.839 23.0288C204.912 22.9572 204.952 22.8603 204.952 22.7592L204.954 15.9471C204.954 15.7635 205.028 15.5874 205.161 15.4575C205.293 15.3276 205.472 15.2547 205.658 15.2547H210.682C210.856 15.2547 211.023 15.3228 211.146 15.444C211.269 15.5652 211.339 15.7296 211.339 15.901V35.2458C211.339 35.3699 211.29 35.4891 211.202 35.5783C211.115 35.6675 210.995 35.7198 210.869 35.7241L205.7 35.9014C205.603 35.9049 205.507 35.8891 205.416 35.855C205.326 35.8209 205.244 35.7693 205.174 35.7031C205.105 35.6369 205.049 35.5575 205.011 35.4698C204.974 35.382 204.954 35.2876 204.954 35.1923V28.648C204.954 28.3057 204.78 28.1346 204.432 28.1346H196.561C196.45 28.1346 196.343 28.1772 196.264 28.2531C196.185 28.3291 196.14 28.4325 196.138 28.5409L196.001 35.4601C195.999 35.5799 195.949 35.6941 195.861 35.7778C195.774 35.8615 195.656 35.9079 195.533 35.9069L190.144 35.8534C189.988 35.8514 189.838 35.7891 189.728 35.6799C189.618 35.5707 189.556 35.4233 189.556 35.2699V15.8105C189.556 15.7351 189.582 15.6611 189.63 15.6Z" fill="white"/>
<path d="M214.907 15.6258C214.907 15.5282 214.946 15.4345 215.016 15.3653C215.086 15.2961 215.181 15.257 215.28 15.2565L228.466 15.1919C228.559 15.1913 228.651 15.2093 228.736 15.2447C228.822 15.2801 228.899 15.3323 228.964 15.3981C229.029 15.4638 229.079 15.5418 229.112 15.6273C229.145 15.7127 229.161 15.804 229.157 15.8954L229.005 19.7382C229.001 19.8597 228.948 19.9747 228.859 20.0591C228.77 20.1435 228.652 20.1907 228.528 20.1906L225.726 20.1961C225.662 20.1961 225.597 20.2087 225.538 20.233C225.478 20.2573 225.423 20.293 225.378 20.338C225.332 20.3829 225.296 20.4362 225.271 20.4949C225.247 20.5536 225.234 20.6165 225.234 20.6799L225.236 30.4909C225.236 30.5856 225.273 30.6768 225.339 30.7458C225.405 30.8148 225.495 30.8564 225.591 30.862C226.49 30.9125 227.419 30.9285 228.38 30.91C228.815 30.9027 229.045 31.1119 229.069 31.5379C229.135 32.7431 229.153 33.9477 229.121 35.1517C229.109 35.6367 228.85 35.8804 228.344 35.8829C224.193 35.9063 220.042 35.8928 215.892 35.8423C215.599 35.8386 215.382 35.8189 215.241 35.7832C215.023 35.7303 214.913 35.593 214.912 35.3714L214.903 31.549C214.903 31.1673 215.096 30.9697 215.483 30.9562L218.425 30.8491C218.487 30.8472 218.545 30.822 218.588 30.7789C218.631 30.7359 218.655 30.6782 218.655 30.6183L218.666 20.6781C218.666 20.5572 218.618 20.4412 218.532 20.3549C218.446 20.2686 218.329 20.2189 218.206 20.2164L215.322 20.1555C215.211 20.1536 215.105 20.1088 215.028 20.0307C214.95 19.9526 214.907 19.8476 214.907 19.7382V15.6258Z" fill="white"/>
<path d="M263.843 20.2958C263.587 20.2429 263.326 20.2146 263.06 20.2109C261.42 20.1937 259.781 20.1857 258.142 20.1869C257.741 20.1881 257.408 20.1586 257.145 20.0982C256.926 20.0478 256.815 19.9117 256.813 19.6901L256.772 15.8326C256.77 15.6898 256.824 15.5519 256.923 15.4471C257.021 15.3424 257.157 15.2788 257.301 15.2694C258.77 15.1679 260.163 15.2122 261.806 15.2122C267.005 15.2072 272.15 15.2066 277.241 15.2103C277.443 15.2103 277.636 15.2889 277.778 15.4288C277.92 15.5687 278 15.7585 278 15.9563V19.4095C278 19.6176 277.916 19.8172 277.766 19.9644C277.617 20.1116 277.414 20.1943 277.202 20.1943H271.146C270.972 20.1943 270.805 20.2624 270.681 20.3836C270.558 20.5048 270.489 20.6692 270.489 20.8406V35.1516C270.489 35.2773 270.447 35.3995 270.37 35.4993C270.292 35.5991 270.184 35.6709 270.061 35.7038C269.804 35.7715 269.509 35.8109 269.174 35.8219C267.672 35.8687 266.206 35.8773 264.775 35.8478C264.596 35.8444 264.425 35.7721 264.3 35.6464C264.175 35.5207 264.104 35.3517 264.104 35.1756C264.103 30.4631 264.103 25.7002 264.104 20.8867C264.104 20.7833 264.062 20.6239 263.977 20.4085C263.953 20.3469 263.908 20.3094 263.843 20.2958Z" fill="white"/>
</svg>
