<svg width="63" height="41" viewBox="0 0 63 41" fill="none" xmlns="http://www.w3.org/2000/svg">
<path d="M4.00197 8.99635C6.2122 8.99635 8.00395 7.18094 8.00395 4.94152C8.00395 2.7021 6.2122 0.886688 4.00197 0.886688C1.79174 0.886688 0 2.7021 0 4.94152C0 7.18094 1.79174 8.99635 4.00197 8.99635Z" fill="white"/>
<path d="M30.7297 16.7956C31.5713 17.9626 32.6361 18.7924 33.8011 19.6854C36.5662 21.8067 38.762 23.1749 42.2571 23.9778C46.1324 24.8669 49.845 25.7887 53.8394 26.0033C54.379 26.0327 55.4495 26.1106 57.0508 26.2371C58.6054 26.3597 61.223 25.804 62.1932 27.6513C62.9043 29.0099 61.849 29.9796 60.527 29.9336C54.5354 29.7266 48.3376 29.2552 42.3082 28.1993C42.2186 28.184 42.1266 28.1757 42.032 28.1744C41.9646 28.1719 41.8984 28.1556 41.8372 28.1265C41.3165 27.8825 40.8582 27.9643 40.4623 28.3718C40.4338 28.4013 40.4114 28.4363 40.3965 28.4748C40.3816 28.5132 40.3745 28.5543 40.3755 28.5956C40.3766 28.6368 40.3858 28.6775 40.4027 28.7151C40.4195 28.7527 40.4436 28.7865 40.4736 28.8145C42.4595 30.6752 44.9787 32.7696 47.4657 33.8983C47.9562 34.1206 48.6604 34.3633 49.5783 34.6265C51.979 35.3164 54.379 36.0069 56.7784 36.698C57.5627 36.9228 57.98 37.0493 58.0305 37.0774C59.0423 37.6446 58.8078 39.1297 58.1572 39.9231C57.7733 40.3926 57.4007 40.4022 56.803 40.2699C51.9764 39.2096 48.8167 38.5012 47.3239 38.1448C44.1578 37.3879 41.4722 35.0423 38.9454 32.9613C36.6627 31.0833 34.4158 29.5503 31.6923 28.1112C29.5464 26.978 27.3997 25.8474 25.2525 24.7194C22.7144 23.3857 20.6094 21.9619 21.3999 18.6755C21.5493 18.0527 22.5688 18.229 23.0435 18.206C25.0218 18.1102 26.183 16.8799 26.1717 14.7989C26.1717 14.6941 26.229 14.5893 26.3438 14.4846C26.4119 14.422 26.5115 14.3671 26.6426 14.3198C30.6874 12.8455 34.2204 10.5748 37.2414 7.50745C38.1795 6.55506 39.1043 5.74256 40.1824 7.00922C41.0542 8.03442 40.3469 8.8086 39.4769 9.51187C36.553 11.8714 33.6435 14.2495 30.7486 16.6461C30.6969 16.6896 30.6906 16.7394 30.7297 16.7956Z" fill="white"/>
<path d="M19.4481 17.2248C19.5059 17.2542 19.552 17.3028 19.5788 17.3623C19.6057 17.4219 19.6116 17.489 19.5957 17.5525C19.2792 18.7802 19.3113 19.9932 19.6921 21.1915C19.7211 21.2835 19.6909 21.3129 19.6013 21.2796C19.4097 21.2081 19.1916 21.0995 18.9469 20.9539C14.8265 18.5011 11.2588 15.4791 8.24413 11.888C6.28097 9.54824 9.09521 7.98648 10.3662 9.67088C12.7984 12.8889 15.8257 15.4069 19.4481 17.2248Z" fill="white"/>
<path d="M22.756 9.56933C24.008 10.7517 25.3471 14.6436 24.008 16.192C22.1792 18.3056 16.2972 12.781 19.2704 9.8951C20.1612 9.03278 21.7479 8.61695 22.756 9.56933Z" fill="white"/>
</svg>
