<svg width="30" height="63" viewBox="0 0 30 63" fill="none" xmlns="http://www.w3.org/2000/svg">
<path d="M14.9787 15.6988C10.6324 15.7369 7.07857 12.2689 7.04103 7.95279C7.0035 3.63671 10.4965 0.106979 14.8428 0.0689171C19.1891 0.0308552 22.743 3.49887 22.7805 7.81495C22.818 12.131 19.3251 15.6608 14.9787 15.6988Z" fill="#006437"/>
<path d="M30 37.6506V37.2342C29.9574 36.9761 29.8964 36.7245 29.8168 36.4795C27.9868 30.8719 26.1517 25.2658 24.3115 19.6611C23.7537 17.9607 22.4492 17.6334 20.7311 17.5958C16.7635 17.5109 12.7764 17.5833 8.80463 17.5722C7.66389 17.5694 6.78358 17.9672 6.16371 18.7656C5.91392 19.0878 5.65209 19.6662 5.37824 20.5008C3.64908 25.7825 1.91946 31.0627 0.189377 36.3416C-0.308832 37.8609 0.175499 39.344 1.64792 39.9777C2.78172 40.4651 4.09871 40.1211 4.83146 39.1546C5.01187 38.917 5.33152 38.1807 5.7904 36.946C6.08739 36.1475 6.38159 35.3533 6.67303 34.5632C6.67779 34.5474 6.68848 34.534 6.70285 34.5259C6.71721 34.5178 6.73414 34.5156 6.7501 34.5198C6.76606 34.5239 6.7798 34.5341 6.78846 34.5481C6.79711 34.5622 6.80001 34.5791 6.79654 34.5953C6.76323 34.8125 6.8229 35.0395 6.8229 35.2136C6.82568 42.8645 6.82521 50.5154 6.82151 58.1664C6.82151 59.2349 6.89137 59.9939 7.03107 60.4432C7.74438 62.7313 10.5366 63.7618 12.5391 62.3678C13.6095 61.6242 14.1475 60.5574 14.1531 59.1676C14.1734 54.0679 14.1827 48.9752 14.1808 43.8895C14.1808 43.8614 14.1921 43.8345 14.2121 43.8146C14.2322 43.7948 14.2594 43.7836 14.2877 43.7836L15.7254 43.7962C15.7809 43.7962 15.8087 43.824 15.8087 43.8797C15.8124 48.8346 15.8124 53.7866 15.8087 58.7359C15.8087 59.4712 15.8711 60.0348 15.996 60.4265C17.0729 63.7883 21.8038 63.8495 22.9349 60.5031C23.0635 60.1206 23.1282 59.5478 23.1292 58.7847C23.131 51.2099 23.1315 43.6346 23.1306 36.0589C23.1292 35.6174 23.1777 35.0451 23.1736 34.5284C23.1739 34.5157 23.1787 34.5034 23.187 34.4937C23.1953 34.484 23.2066 34.4775 23.2191 34.4752C23.2317 34.4729 23.2446 34.475 23.2557 34.4812C23.2669 34.4873 23.2756 34.4971 23.2804 34.5089C23.5793 35.3454 23.8878 36.1861 24.2061 37.0309C24.7709 38.5349 24.9832 39.461 26.2544 39.9985C28.0585 40.7617 29.6878 39.5042 30 37.6506Z" fill="#006437"/>
</svg>
