<svg width="32" height="38" viewBox="0 0 32 38" fill="none" xmlns="http://www.w3.org/2000/svg">
<path d="M14.5787 0.98288H16.3139C19.8437 1.29456 23.0496 3.73311 24.0938 7.0639C25.3227 10.9831 23.8498 14.9694 20.3449 17.2303C18.4163 18.4735 15.9395 18.8843 13.6803 18.4549C8.17861 17.4086 4.99761 11.8433 6.93068 6.65665C8.09947 3.52128 11.1867 1.26603 14.5787 0.98288Z" fill="#EAEAEA"/>
<path d="M25.5535 37.5004H5.77428C5.34683 37.4529 4.92499 37.3766 4.50877 37.2715C1.86051 36.6018 0.135545 34.4278 0.021231 31.781C-0.186146 26.9781 1.04126 19.1917 7.46334 18.6269C8.10159 18.5712 8.5779 18.5234 9.07179 18.7823C9.88298 19.2074 10.9133 19.972 11.7516 20.3893C14.284 21.6502 16.8143 21.6952 19.3959 20.4948C20.265 20.0911 21.3414 19.3223 22.0669 18.8879C22.4318 18.6696 22.8026 18.5726 23.2533 18.5833C30.0359 18.7424 31.3549 26.17 31.3695 31.1705C31.3798 34.6304 29.1653 37.1966 25.5535 37.5004Z" fill="#EAEAEA"/>
</svg>
