<svg width="173" height="33" viewBox="0 0 173 33" fill="none" xmlns="http://www.w3.org/2000/svg">
<path d="M155.105 2.84215C155.409 1.93093 156.698 1.93093 157.002 2.84215L159.631 10.7178C159.767 11.126 160.149 11.4012 160.579 11.4012H169.027C170.002 11.4012 170.401 12.6545 169.604 13.2176L162.817 18.0188C162.457 18.2734 162.306 18.7336 162.445 19.1518L165.049 26.9527C165.355 27.8693 164.312 28.6437 163.523 28.0857L156.631 23.2109C156.285 22.9661 155.822 22.9661 155.476 23.2109L148.584 28.0857C147.795 28.6437 146.752 27.8693 147.058 26.9527L149.662 19.1518C149.801 18.7336 149.651 18.2734 149.291 18.0188L142.503 13.2176C141.707 12.6545 142.105 11.4012 143.08 11.4012H151.528C151.958 11.4012 152.34 11.126 152.477 10.7178L155.105 2.84215Z" fill="#D9D9D9"/>
<path d="M120.695 2.7501C121.005 1.85033 122.277 1.85033 122.587 2.75009L125.33 10.7264C125.468 11.1301 125.848 11.4012 126.275 11.4012H135.025C136.007 11.4012 136.401 12.6696 135.591 13.2256L128.612 18.0171C128.241 18.2715 128.086 18.7418 128.232 19.1667L130.92 26.9855C131.234 27.8969 130.203 28.6806 129.409 28.1351L122.207 23.191C121.866 22.9569 121.416 22.9569 121.075 23.191L113.873 28.1351C113.079 28.6806 112.048 27.8969 112.362 26.9855L115.05 19.1667C115.197 18.7418 115.041 18.2715 114.671 18.0171L107.691 13.2256C106.881 12.6696 107.275 11.4012 108.257 11.4012H117.007C117.434 11.4012 117.814 11.1301 117.953 10.7264L120.695 2.7501Z" fill="#FFC700"/>
<path d="M86.2823 2.84215C86.5864 1.93093 87.8753 1.93093 88.1794 2.84215L90.8079 10.7178C90.9441 11.126 91.3262 11.4012 91.7565 11.4012H100.204C101.179 11.4012 101.578 12.6545 100.782 13.2176L93.9938 18.0188C93.6339 18.2734 93.4832 18.7336 93.6227 19.1518L96.2263 26.9527C96.5322 27.8693 95.4892 28.6437 94.7002 28.0857L87.8083 23.2109C87.4622 22.9661 86.9994 22.9661 86.6534 23.2109L79.7614 28.0857C78.9725 28.6437 77.9295 27.8693 78.2354 26.9527L80.8389 19.1518C80.9785 18.7336 80.8278 18.2734 80.4678 18.0188L73.68 13.2176C72.8838 12.6545 73.2823 11.4012 74.2575 11.4012H82.7052C83.1355 11.4012 83.5176 11.126 83.6538 10.7178L86.2823 2.84215Z" fill="#FFC700"/>
<path d="M51.3644 2.66313C51.6789 1.77471 52.9353 1.77471 53.2498 2.66313L56.107 10.7349C56.2483 11.1343 56.626 11.4012 57.0497 11.4012H66.101C67.0904 11.4012 67.4789 12.6843 66.6559 13.2332L59.4847 18.0157C59.1038 18.2697 58.9441 18.7498 59.0968 19.1813L61.87 27.0156C62.1908 27.9221 61.1724 28.7148 60.3724 28.1813L52.8619 23.1725C52.5259 22.9484 52.0882 22.9484 51.7522 23.1725L44.2417 28.1813C43.4417 28.7148 42.4233 27.9221 42.7442 27.0156L45.5173 19.1813C45.6701 18.7498 45.5103 18.2697 45.1295 18.0157L37.9583 13.2332C37.1352 12.6843 37.5238 11.4012 38.5131 11.4012H47.5645C47.9881 11.4012 48.3658 11.1343 48.5072 10.7349L51.3644 2.66313Z" fill="#FFC700"/>
<path d="M16.4346 2.84215C16.7387 1.93093 18.0276 1.93093 18.3317 2.84215L20.9602 10.7178C21.0965 11.126 21.4785 11.4012 21.9088 11.4012H30.3565C31.3317 11.4012 31.7302 12.6545 30.934 13.2176L24.1462 18.0188C23.7863 18.2734 23.6355 18.7336 23.7751 19.1518L26.3786 26.9527C26.6845 27.8693 25.6415 28.6437 24.8526 28.0857L17.9606 23.2109C17.6146 22.9661 17.1518 22.9661 16.8057 23.2109L9.91377 28.0857C9.12485 28.6437 8.08182 27.8693 8.38774 26.9527L10.9913 19.1518C11.1308 18.7336 10.9801 18.2734 10.6202 18.0188L3.83234 13.2176C3.03617 12.6545 3.4346 11.4012 4.40981 11.4012H12.8576C13.2878 11.4012 13.6699 11.126 13.8061 10.7178L16.4346 2.84215Z" fill="#FFC700"/>
</svg>
