<svg width="45" height="45" viewBox="0 0 45 45" fill="none" xmlns="http://www.w3.org/2000/svg">
<g clip-path="url(#clip0_110_2732)">
<path d="M3.10342 0H41.9071C43.6236 0.137988 44.877 1.39131 45 3.10342V41.9071C44.8102 43.6729 43.6746 44.8189 41.8966 45H3.09287C1.33154 44.8146 0.197754 43.6843 0 41.9186V3.04893C0.227637 1.29287 1.34121 0.17666 3.10342 0ZM27.3287 18.0905C29.2154 19.505 31.3468 20.2298 33.7228 20.2649C33.7556 20.2649 33.772 20.2488 33.772 20.2166V16.1288C33.772 16.1199 33.7685 16.1113 33.7622 16.1049C33.756 16.0985 33.7475 16.0948 33.7386 16.0945C30.1816 16.0031 27.3779 13.3339 27.2804 9.71982C27.2798 9.68525 27.2622 9.66797 27.2276 9.66797H23.117C23.1046 9.66797 23.0928 9.67278 23.0841 9.68135C23.0753 9.68993 23.0704 9.70155 23.0704 9.71367C23.0722 15.4184 23.0722 21.1251 23.0704 26.8339C23.0698 27.5423 23.0265 28.0588 22.9403 28.3834C22.5325 29.9206 21.1219 31.0562 19.553 31.1643C17.4894 31.3058 15.6612 29.7712 15.4898 27.6908C15.2675 24.975 17.9033 22.986 20.4363 23.7841C20.4412 23.7856 20.4463 23.7859 20.4513 23.7851C20.4563 23.7843 20.4611 23.7823 20.4652 23.7793C20.4693 23.7763 20.4726 23.7724 20.4749 23.7679C20.4772 23.7634 20.4785 23.7584 20.4785 23.7533V19.6014C20.4784 19.5837 20.4719 19.5667 20.4603 19.5536C20.4486 19.5404 20.4326 19.5321 20.4152 19.5302C18.143 19.2513 16.135 19.7698 14.3912 21.0858C8.6625 25.4092 11.2052 34.3529 18.2294 35.2591C22.1247 35.7618 25.8697 33.3729 26.9877 29.5805C27.1863 28.9066 27.2865 28.2457 27.2883 27.5977C27.2971 24.4348 27.293 21.2748 27.276 18.1178C27.2759 18.1115 27.2776 18.1053 27.2809 18.1C27.2841 18.0946 27.2887 18.0902 27.2942 18.0874C27.2997 18.0845 27.3059 18.0833 27.312 18.0839C27.3181 18.0844 27.3239 18.0867 27.3287 18.0905Z" fill="white"/>
</g>
<defs>
<clipPath id="clip0_110_2732">
<rect width="45" height="45" fill="white"/>
</clipPath>
</defs>
</svg>
