<svg width="31" height="63" viewBox="0 0 31 63" fill="none" xmlns="http://www.w3.org/2000/svg">
<path d="M15.4157 15.7488C19.7146 15.7488 23.1996 12.2233 23.1996 7.87439C23.1996 3.52548 19.7146 0 15.4157 0C11.1168 0 7.63184 3.52548 7.63184 7.87439C7.63184 12.2233 11.1168 15.7488 15.4157 15.7488Z" fill="#006437"/>
<path d="M31 37.0947V37.3711C30.8051 39.3095 28.5266 40.9715 26.8919 39.3497C26.3662 38.829 25.9626 37.8446 25.5921 37.1017C25.5869 37.0904 25.5778 37.0814 25.5665 37.0763C25.5552 37.0713 25.5425 37.0706 25.5308 37.0743C25.519 37.078 25.509 37.086 25.5026 37.0966C25.4962 37.1073 25.4938 37.12 25.496 37.1322C25.8812 39.5474 26.2683 41.9579 26.6572 44.3637C26.8091 45.3079 26.8466 45.943 26.7697 46.2688C26.5021 47.4005 25.5344 47.6407 24.4446 47.6393C23.5112 47.6384 22.5788 47.6384 21.6473 47.6393C21.6261 47.6393 21.6051 47.6435 21.5855 47.6518C21.5659 47.66 21.5482 47.6721 21.5332 47.6874C21.5183 47.7026 21.5065 47.7207 21.4985 47.7405C21.4905 47.7604 21.4865 47.7817 21.4867 47.8031C21.5105 51.94 21.5022 56.0737 21.462 60.2042C21.4304 63.4256 16.927 64.056 16.0499 61.0789C15.9556 60.7596 15.9081 60.1903 15.9072 59.371C15.8998 55.4905 15.8989 51.6156 15.9044 47.7462C15.9044 47.7178 15.8933 47.6907 15.8735 47.6706C15.8536 47.6506 15.8267 47.6393 15.7987 47.6393H15.0369C14.9729 47.6393 14.9409 47.6717 14.9409 47.7365C14.9418 51.7216 14.9413 55.7039 14.9395 59.6835C14.9395 60.2898 14.8448 60.8535 14.6554 61.3747C13.9746 63.2506 11.2637 63.5311 10.0188 62.0245C9.57866 61.4932 9.35768 60.8609 9.35585 60.1278C9.34486 55.9992 9.34303 51.8794 9.35035 47.7684C9.35035 47.7338 9.33691 47.7006 9.31297 47.6761C9.28903 47.6517 9.25656 47.6379 9.2227 47.6379C8.17817 47.6407 6.19755 47.8531 5.29165 47.4338C4.16614 46.9131 4.23476 45.8828 4.43516 44.7261C4.86432 42.249 5.30171 39.7802 5.74734 37.3197C5.75075 37.3039 5.74813 37.2874 5.74 37.2735C5.73188 37.2596 5.71885 37.2494 5.70355 37.2448C5.68824 37.2402 5.6718 37.2417 5.65751 37.2489C5.64323 37.2561 5.63217 37.2685 5.62656 37.2836C5.36577 37.8959 5.05145 38.618 4.62595 39.0762C2.97611 40.848 -0.134147 39.5705 0.00448334 37.0684C0.0236994 36.7194 0.18063 36.1978 0.475276 35.5035C2.54787 30.614 4.62458 25.7268 6.7054 20.8419C7.47953 19.0216 8.05876 17.7302 10.2096 17.7455C13.8757 17.7719 17.5446 17.7566 21.2094 17.7497C22.173 17.7483 22.9087 17.7386 23.444 18.4509C23.7176 18.8147 23.9962 19.3497 24.2799 20.056C26.3451 25.188 28.4159 30.3182 30.4921 35.4466C30.7703 36.1334 30.9396 36.6828 31 37.0947Z" fill="#006437"/>
</svg>
